<svg width="80" height="114" viewBox="0 0 80 114" fill="none" xmlns="http://www.w3.org/2000/svg">
<path d="M77.4737 77.2667L50.5263 57L77.4737 36.7333C78.2581 36.1434 78.8947 35.3784 79.3332 34.499C79.7717 33.6196 80 32.6499 80 31.6667C80 30.6835 79.7717 29.7137 79.3332 28.8343C78.8947 27.9549 78.2581 27.1899 77.4737 26.6L43.7895 1.26667C42.8511 0.560964 41.7354 0.131221 40.5672 0.025594C39.399 -0.0800331 38.2246 0.142629 37.1755 0.668631C36.1264 1.19463 35.2441 2.00319 34.6275 3.00371C34.0108 4.00422 33.6842 5.15716 33.6842 6.33334V44.3333L10.1053 26.6C8.76524 25.5922 7.08084 25.1594 5.42263 25.397C3.76441 25.6345 2.26821 26.5229 1.26318 27.8667C0.258154 29.2104 -0.173385 30.8995 0.0635026 32.5623C0.300391 34.2252 1.1863 35.7255 2.52634 36.7333L29.4737 57L2.52634 77.2667C1.86282 77.7657 1.30381 78.3909 0.881239 79.1065C0.458664 79.8222 0.180798 80.6143 0.0635026 81.4377C-0.0537925 82.261 -0.00821829 83.0995 0.197623 83.9051C0.403465 84.7108 0.765544 85.468 1.26318 86.1333C1.76082 86.7987 2.38428 87.3593 3.09796 87.783C3.81164 88.2068 4.60156 88.4854 5.42263 88.603C6.24369 88.7206 7.07982 88.6749 7.88327 88.4685C8.68672 88.2621 9.44176 87.899 10.1053 87.4L33.6842 69.6667V107.667C33.6842 108.843 34.0108 109.996 34.6275 110.996C35.2441 111.997 36.1264 112.805 37.1755 113.331C38.2246 113.857 39.399 114.08 40.5672 113.974C41.7354 113.869 42.8511 113.439 43.7895 112.733L77.4737 87.4C78.2581 86.8101 78.8947 86.0451 79.3332 85.1657C79.7717 84.2863 80 83.3166 80 82.3333C80 81.3501 79.7717 80.3804 79.3332 79.501C78.8947 78.6216 78.2581 77.8566 77.4737 77.2667ZM46.3158 19L63.1579 31.6667L46.3158 44.3333V19ZM46.3158 95V69.6667L63.1579 82.3333L46.3158 95Z" fill="#FF5038"/>
</svg>
