<svg width="89" height="104" viewBox="0 0 89 104" fill="none" xmlns="http://www.w3.org/2000/svg">
<path d="M6.9707 89.78C9.85271 88.0103 32.6516 69.826 55.8132 47.5299C60.8454 42.8323 66.3947 38.4115 70.0601 35.4947C73.7254 32.578 75.3386 31.2993 79.0966 29.4233" stroke="#388EFF" stroke-width="10" stroke-linecap="round"/>
<path d="M76.1711 31.1064C73.3569 29.314 62.5755 20.0798 49.7688 8.53282C47.7459 6.7089 46.5925 5.13833 46.3474 5.39893C44.7085 7.14177 48.0248 12.9792 47.1022 31.1064C44.9625 73.1463 41.4125 99.979 44.6921 98.3363C52.6096 94.3703 60.9243 88.0155 68.1382 84.9137C71.678 83.3916 74.7152 81.2295 76.1711 78.8833C80.8986 71.2643 56.611 64.0917 38.1727 47.7133C32.2751 42.5445 25.429 36.7951 21.0041 32.9322C16.5793 29.0693 14.7831 27.267 11.7696 23.8259" stroke="#388EFF" stroke-width="10" stroke-linecap="round"/>
</svg>
