<svg width="20" height="20" viewBox="0 0 20 20" fill="none" xmlns="http://www.w3.org/2000/svg">
<path d="M14.6627 10.64C14.9753 10.9526 15.3993 11.1282 15.8414 11.1282C16.2835 11.1282 16.7076 10.9526 17.0202 10.64C17.3328 10.3273 17.5084 9.90333 17.5084 9.46121C17.5084 9.0191 17.3328 8.59509 17.0202 8.28246L15.5468 6.80996C15.8595 7.12248 16.2834 7.298 16.7255 7.29792C16.9444 7.29789 17.1611 7.25474 17.3633 7.17094C17.5655 7.08715 17.7492 6.96434 17.9039 6.80955C18.0587 6.65475 18.1814 6.47099 18.2651 6.26876C18.3489 6.06654 18.3919 5.8498 18.3919 5.63092C18.3919 5.41204 18.3487 5.19532 18.2649 4.99312C18.1811 4.79092 18.0583 4.60721 17.9035 4.45246L15.5468 2.0958C15.2343 1.78317 14.8104 1.6075 14.3684 1.60742C13.9264 1.60734 13.5024 1.78287 13.1898 2.09538C12.8771 2.4079 12.7015 2.8318 12.7014 3.27384C12.7013 3.71588 12.8768 4.13984 13.1893 4.45246L11.7168 2.97913C11.5621 2.82434 11.3783 2.70155 11.176 2.61777C10.9738 2.534 10.757 2.49088 10.5381 2.49088C10.3192 2.49088 10.1024 2.534 9.90016 2.61777C9.69791 2.70155 9.51414 2.82434 9.35935 2.97913C9.20455 3.13393 9.08176 3.3177 8.99799 3.51995C8.91421 3.7222 8.87109 3.93897 8.87109 4.15788C8.87109 4.3768 8.91421 4.59357 8.99799 4.79582C9.08176 4.99807 9.20455 5.18184 9.35935 5.33663L14.6627 10.64Z" stroke="#FF5038" stroke-width="1.66667" stroke-linecap="round" stroke-linejoin="round"/>
<path d="M2.08398 17.9167L3.25065 16.75" stroke="#FF5038" stroke-width="1.66667" stroke-linecap="round" stroke-linejoin="round"/>
<path d="M16.75 3.24992L17.9167 2.08325" stroke="#FF5038" stroke-width="1.66667" stroke-linecap="round" stroke-linejoin="round"/>
<path d="M4.45246 17.9042C4.76498 18.2169 5.18888 18.3925 5.63092 18.3926C5.8498 18.3927 6.06654 18.3496 6.26876 18.2659C6.47099 18.1821 6.65475 18.0594 6.80955 17.9047C6.96434 17.7499 7.08715 17.5662 7.17094 17.364C7.25474 17.1618 7.29789 16.9451 7.29792 16.7262C7.29796 16.5073 7.25489 16.2906 7.17117 16.0884C7.08744 15.8861 6.96471 15.7024 6.80996 15.5476L8.28246 17.0209C8.59509 17.3335 9.0191 17.5092 9.46121 17.5092C9.90333 17.5092 10.3273 17.3335 10.64 17.0209C10.9526 16.7083 11.1282 16.2843 11.1282 15.8422C11.1282 15.4 10.9526 14.976 10.64 14.6634L5.33663 9.36008C5.18184 9.20528 4.99807 9.08249 4.79582 8.99872C4.59357 8.91494 4.3768 8.87183 4.15788 8.87183C3.93897 8.87183 3.7222 8.91494 3.51995 8.99872C3.3177 9.08249 3.13393 9.20528 2.97913 9.36008C2.82434 9.51488 2.70155 9.69864 2.61777 9.90089C2.534 10.1031 2.49088 10.3199 2.49088 10.5388C2.49088 10.7577 2.534 10.9745 2.61777 11.1768C2.70155 11.379 2.82434 11.5628 2.97913 11.7176L4.45246 13.1901C4.13984 12.8776 3.71588 12.702 3.27384 12.7021C2.8318 12.7022 2.4079 12.8779 2.09538 13.1905C1.78287 13.5031 1.60734 13.9271 1.60742 14.3691C1.6075 14.8112 1.78317 15.2351 2.0958 15.5476L4.45246 17.9042Z" stroke="#FF5038" stroke-width="1.66667" stroke-linecap="round" stroke-linejoin="round"/>
<path d="M8 12L12 8" stroke="#FF5038" stroke-width="1.66667" stroke-linecap="round" stroke-linejoin="round"/>
</svg>
