<svg width="20" height="18" viewBox="0 0 20 18" fill="none" xmlns="http://www.w3.org/2000/svg">
<path d="M14.3103 0C12.5784 0 11.0414 0.713683 10 1.94035C8.95862 0.713683 7.42155 0 5.68966 0C4.18123 0.00190534 2.7351 0.628322 1.66848 1.74185C0.601855 2.85538 0.00182508 4.36509 0 5.93986C0 12.4503 9.12155 17.6522 9.50948 17.8709C9.66023 17.9556 9.82878 18 10 18C10.1712 18 10.3398 17.9556 10.4905 17.8709C10.8784 17.6522 20 12.4503 20 5.93986C19.9982 4.36509 19.3981 2.85538 18.3315 1.74185C17.2649 0.628322 15.8188 0.00190534 14.3103 0ZM13.8371 12.8121C12.6364 13.8757 11.353 14.833 10 15.674C8.64703 14.833 7.36356 13.8757 6.16293 12.8121C4.29483 11.139 2.06897 8.58759 2.06897 5.93986C2.06897 4.93736 2.45043 3.97593 3.12944 3.26706C3.80845 2.55819 4.72939 2.15995 5.68966 2.15995C7.22414 2.15995 8.50862 3.00593 9.04224 4.3685C9.11991 4.56713 9.25249 4.73711 9.42306 4.85676C9.59364 4.97641 9.79449 5.04031 10 5.04031C10.2055 5.04031 10.4064 4.97641 10.5769 4.85676C10.7475 4.73711 10.8801 4.56713 10.9578 4.3685C11.4914 3.00593 12.7759 2.15995 14.3103 2.15995C15.2706 2.15995 16.1915 2.55819 16.8706 3.26706C17.5496 3.97593 17.931 4.93736 17.931 5.93986C17.931 8.58759 15.7052 11.139 13.8371 12.8121Z" fill="#999999"/>
</svg>
