<svg width="75" height="80" viewBox="0 0 75 80" fill="none" xmlns="http://www.w3.org/2000/svg">
<path d="M29.2903 28.632C31.0663 28.2666 37.8716 31.2678 43.4928 36.9232C45.7256 39.1696 45.3616 41.3076 44.9581 43.2275C44.1295 47.1703 42.0738 50.4891 40.2254 53.1978C38.4996 55.7269 35.2785 57.3676 31.0566 58.1648C26.9025 58.9492 22.9524 57.3828 18.9211 55.3961C7.73649 49.8837 5.60122 39.399 5.02786 32.654C4.37196 24.9381 15.4293 15.9559 23.3892 10.1756C34.121 2.38259 44.887 5.11117 51.8851 7.34306C55.6372 8.5397 59.8763 12.8937 64.8224 17.6313C68.7286 21.3728 69.5398 26.2034 69.6218 31.8285C65.731 47.4507 61.3276 54.9637 55.0284 64.4136C52.0584 68.229 46.9648 74.688 34.4668 74.6876" stroke="#388EFF" stroke-width="10" stroke-linecap="round"/>
</svg>
