<svg width="100" height="107" viewBox="0 0 100 107" fill="none" xmlns="http://www.w3.org/2000/svg">
<path d="M44 50.4231V7.03847C44 5.17175 44.6321 3.38149 45.7574 2.06152C46.8826 0.741553 48.4087 3.8147e-06 50 3.8147e-06C51.5913 3.8147e-06 53.1174 0.692927 54.2426 1.92634C55.3679 3.15975 56 4.83262 56 6.57693V50.4231C56 52.1674 55.3679 53.8402 54.2426 55.0737C53.1174 56.3071 51.5913 57 50 57C48.4087 57 46.8826 56.3071 45.7574 55.0737C44.6321 53.8402 44 52.1674 44 50.4231ZM77.275 15.9999C75.9427 15.1796 74.3426 14.9121 72.816 15.2545C71.2893 15.597 69.9568 16.5222 69.1025 17.833C68.2482 19.1438 67.9397 20.7364 68.2428 22.2714C68.5459 23.8064 69.4366 25.1622 70.725 26.0499C81.705 33.1849 88 44.4999 88 56.9999C88 67.0782 83.9964 76.7437 76.8701 83.8701C69.7437 90.9964 60.0782 95 50 95C39.9218 95 30.2563 90.9964 23.1299 83.8701C16.0036 76.7437 12 67.0782 12 56.9999C12 44.4999 18.295 33.1849 29.275 26.0249C30.4949 25.1107 31.321 23.7664 31.5856 22.2651C31.8501 20.7638 31.5333 19.2181 30.6995 17.9419C29.8657 16.6657 28.5774 15.7548 27.0963 15.3941C25.6151 15.0334 24.0522 15.25 22.725 15.9999C8.28 25.3899 0 40.3449 0 56.9999C0 70.2608 5.26784 82.9785 14.6447 92.3553C24.0215 101.732 36.7392 107 50 107C63.2608 107 75.9785 101.732 85.3553 92.3553C94.7322 82.9785 100 70.2608 100 56.9999C100 40.3449 91.72 25.3899 77.275 15.9999Z" fill="#FF5038"/>
</svg>
