<svg width="96" height="94" viewBox="0 0 96 94" fill="none" xmlns="http://www.w3.org/2000/svg">
<path d="M35.687 21.7856C35.4563 21.7856 28.8097 21.8592 18.1295 22.6281C12.0714 23.0642 9.60132 28.0969 7.5499 32.0818C4.04878 38.8828 4.74972 50.9553 6.13442 61.6093C7.13551 69.3118 15.7607 75.4444 25.8904 81.5399C39.3417 89.6342 65.5195 89.3423 77.5533 86.1692C89.0887 83.1276 89.7319 65.3896 90.2864 42.6316C90.4609 35.4727 88.4051 31.2893 86.4308 27.626C85.3257 26.0372 84.011 24.997 81.8659 24.4084C79.7208 23.8199 76.7851 23.7144 73.7604 23.6058" stroke="#388EFF" stroke-width="10" stroke-linecap="round"/>
<path d="M49.8398 5V45.6048" stroke="#388EFF" stroke-width="10" stroke-linecap="round"/>
</svg>
