<svg width="310" height="162" viewBox="0 0 310 162" fill="none" xmlns="http://www.w3.org/2000/svg">
<path d="M115 39.3939C115 17.6373 132.637 0 154.394 0H155.606C177.363 0 195 17.6373 195 39.3939C195 61.1506 177.363 78.7879 155.606 78.7879H154.394C132.637 78.7879 115 61.1506 115 39.3939Z" fill="#FF5038"/>
<path d="M138.334 35.2273C138.334 33.3726 138.897 31.5616 139.948 30.0334C140.998 28.5052 142.488 27.3317 144.22 26.6679C145.952 26.0042 147.844 25.8814 149.647 26.3157C151.45 26.75 153.079 27.7211 154.319 29.1006C154.406 29.194 154.512 29.2684 154.629 29.3193C154.746 29.3702 154.873 29.3964 155.001 29.3964C155.128 29.3964 155.255 29.3702 155.372 29.3193C155.489 29.2684 155.595 29.194 155.682 29.1006C156.918 27.7121 158.547 26.7329 160.353 26.2933C162.159 25.8537 164.056 25.9745 165.792 26.6398C167.528 27.305 169.02 28.483 170.069 30.0171C171.119 31.5512 171.676 33.3685 171.667 35.2273C171.667 39.0439 169.167 41.8939 166.667 44.3939L157.514 53.2489C157.203 53.6056 156.821 53.8921 156.391 54.0895C155.961 54.2868 155.494 54.3904 155.021 54.3934C154.548 54.3964 154.08 54.2987 153.648 54.1068C153.216 53.915 152.829 53.6333 152.514 53.2806L143.334 44.3939C140.834 41.8939 138.334 39.0606 138.334 35.2273Z" stroke="white" stroke-width="3.33333" stroke-linecap="round" stroke-linejoin="round"/>
<path d="M87.4868 124.545V100.545H92.6168C92.8268 100.545 93.0368 100.635 93.1868 100.815L99.6668 108.345L106.147 100.815C106.297 100.635 106.507 100.545 106.747 100.545H111.847V124.545H106.147V109.545L103.447 112.725L101.257 115.245C100.417 116.205 98.9168 116.205 98.0768 115.245L93.1868 109.545V124.545H87.4868ZM127.99 100.545C134.62 100.545 139.99 105.915 139.99 112.545C139.99 119.175 134.62 124.545 127.99 124.545C121.36 124.545 115.99 119.175 115.99 112.545C115.99 105.915 121.36 100.545 127.99 100.545ZM127.99 118.815C131.44 118.815 134.26 116.025 134.26 112.545C134.26 109.095 131.44 106.275 127.99 106.275C124.51 106.275 121.72 109.095 121.72 112.545C121.72 116.025 124.51 118.815 127.99 118.815ZM144.147 124.545V100.545H149.277C149.487 100.545 149.697 100.635 149.847 100.815L156.327 108.345L162.807 100.815C162.957 100.635 163.167 100.545 163.407 100.545H168.507V124.545H162.807V109.545L160.107 112.725L157.917 115.245C157.077 116.205 155.577 116.205 154.737 115.245L149.847 109.545V124.545H144.147ZM173.4 124.545V100.545H185.58C186.75 100.545 187.68 101.475 187.68 102.645V106.245H179.1V109.695H187.68V115.395H179.1V124.545H173.4ZM192.575 124.545V100.545H196.205C197.345 100.545 198.305 101.475 198.305 102.645V124.545H192.575ZM210.005 124.545V106.245H202.445V100.545H221.165C222.335 100.545 223.265 101.505 223.265 102.645V106.245H215.705V124.545H210.005Z" fill="#FF5038"/>
<path d="M64.3202 142.284H65.6482V150.54H64.3202V142.284ZM56.3042 151.324H65.6482V156.556H56.3042V151.324ZM64.3522 152.396H57.6002V155.468H64.3522V152.396ZM57.8882 143.036C58.6242 143.036 59.2749 143.18 59.8402 143.468C60.4055 143.756 60.8482 144.156 61.1682 144.668C61.4989 145.169 61.6642 145.756 61.6642 146.428C61.6642 147.089 61.4989 147.676 61.1682 148.188C60.8482 148.689 60.4055 149.084 59.8402 149.372C59.2749 149.66 58.6242 149.804 57.8882 149.804C57.1629 149.804 56.5122 149.66 55.9362 149.372C55.3709 149.084 54.9229 148.689 54.5922 148.188C54.2722 147.676 54.1122 147.089 54.1122 146.428C54.1122 145.756 54.2722 145.169 54.5922 144.668C54.9229 144.156 55.3709 143.756 55.9362 143.468C56.5122 143.18 57.1629 143.036 57.8882 143.036ZM57.8882 144.156C57.4189 144.156 56.9975 144.252 56.6242 144.444C56.2509 144.636 55.9522 144.903 55.7282 145.244C55.5149 145.575 55.4082 145.969 55.4082 146.428C55.4082 146.865 55.5149 147.255 55.7282 147.596C55.9522 147.937 56.2509 148.204 56.6242 148.396C56.9975 148.588 57.4189 148.684 57.8882 148.684C58.3682 148.684 58.7949 148.588 59.1682 148.396C59.5415 148.204 59.8349 147.937 60.0482 147.596C60.2615 147.255 60.3682 146.865 60.3682 146.428C60.3682 145.969 60.2615 145.575 60.0482 145.244C59.8349 144.903 59.5415 144.636 59.1682 144.444C58.7949 144.252 58.3682 144.156 57.8882 144.156ZM71.7504 143.148H72.8544V144.924C72.8544 145.873 72.6891 146.748 72.3584 147.548C72.0278 148.337 71.5638 149.025 70.9664 149.612C70.3691 150.199 69.6651 150.647 68.8544 150.956L68.1344 149.9C68.8704 149.644 69.5104 149.271 70.0544 148.78C70.5984 148.279 71.0144 147.697 71.3024 147.036C71.6011 146.375 71.7504 145.671 71.7504 144.924V143.148ZM71.9904 143.148H73.0624V144.972C73.0624 145.463 73.1478 145.943 73.3184 146.412C73.4998 146.881 73.7451 147.324 74.0544 147.74C74.3744 148.145 74.7478 148.503 75.1744 148.812C75.6118 149.111 76.0971 149.356 76.6304 149.548L75.9584 150.604C75.1691 150.305 74.4758 149.879 73.8784 149.324C73.2811 148.769 72.8171 148.119 72.4864 147.372C72.1558 146.625 71.9904 145.825 71.9904 144.972V143.148ZM78.1024 142.268H79.4304V152.956H78.1024V142.268ZM79.0144 146.7H81.5584V147.82H79.0144V146.7ZM70.4384 155.34H80.0704V156.428H70.4384V155.34ZM70.4384 151.932H71.7824V155.868H70.4384V151.932ZM82.5887 150.844H95.7087V151.916H82.5887V150.844ZM88.4607 151.34H89.7727V156.748H88.4607V151.34ZM84.2527 142.86H85.5647V144.844H92.7167V142.86H94.0447V149.116H84.2527V142.86ZM85.5647 145.916V148.028H92.7167V145.916H85.5647ZM96.9949 148.988H110.115V150.012H96.9949V148.988ZM98.5629 151.164H108.483V154.252H99.9069V155.948H98.5949V153.34H107.171V152.124H98.5629V151.164ZM98.5949 155.596H108.947V156.556H98.5949V155.596ZM98.6589 142.7H108.435V145.708H100.003V147.276H98.6909V144.812H107.123V143.644H98.6589V142.7ZM98.6909 146.956H108.691V147.916H98.6909V146.956ZM120.325 142.956C121.05 142.956 121.69 143.084 122.245 143.34C122.799 143.585 123.231 143.932 123.541 144.38C123.861 144.817 124.021 145.335 124.021 145.932C124.021 146.508 123.861 147.025 123.541 147.484C123.231 147.932 122.799 148.284 122.245 148.54C121.69 148.785 121.05 148.908 120.325 148.908C119.621 148.908 118.991 148.785 118.437 148.54C117.882 148.284 117.445 147.932 117.125 147.484C116.805 147.025 116.645 146.508 116.645 145.932C116.645 145.335 116.805 144.817 117.125 144.38C117.445 143.932 117.882 143.585 118.437 143.34C118.991 143.084 119.621 142.956 120.325 142.956ZM120.325 144.044C119.866 144.044 119.455 144.124 119.093 144.284C118.73 144.444 118.442 144.668 118.229 144.956C118.026 145.233 117.925 145.559 117.925 145.932C117.925 146.295 118.026 146.62 118.229 146.908C118.442 147.185 118.73 147.404 119.093 147.564C119.455 147.724 119.866 147.804 120.325 147.804C120.805 147.804 121.226 147.724 121.589 147.564C121.951 147.404 122.234 147.185 122.437 146.908C122.65 146.62 122.757 146.295 122.757 145.932C122.757 145.559 122.65 145.233 122.437 144.956C122.234 144.668 121.951 144.444 121.589 144.284C121.226 144.124 120.805 144.044 120.325 144.044ZM119.749 150.524H121.077V156.3H119.749V150.524ZM126.149 142.284H127.461V156.748H126.149V142.284ZM115.749 151.244L115.573 150.124C116.469 150.124 117.45 150.113 118.517 150.092C119.594 150.071 120.698 150.023 121.829 149.948C122.97 149.873 124.063 149.756 125.109 149.596L125.205 150.588C124.127 150.791 123.029 150.94 121.909 151.036C120.789 151.121 119.701 151.175 118.645 151.196C117.599 151.217 116.634 151.233 115.749 151.244ZM139.915 142.284H141.243V153.132H139.915V142.284ZM140.827 147.036H143.371V148.14H140.827V147.036ZM130.043 144.044H138.587V145.116H130.043V144.044ZM134.315 145.9C134.998 145.9 135.6 146.017 136.123 146.252C136.646 146.476 137.051 146.791 137.339 147.196C137.627 147.591 137.771 148.06 137.771 148.604C137.771 149.148 137.627 149.623 137.339 150.028C137.051 150.423 136.646 150.732 136.123 150.956C135.6 151.18 134.998 151.292 134.315 151.292C133.632 151.292 133.03 151.18 132.507 150.956C131.984 150.732 131.574 150.423 131.275 150.028C130.987 149.623 130.843 149.148 130.843 148.604C130.843 148.06 130.987 147.591 131.275 147.196C131.574 146.791 131.984 146.476 132.507 146.252C133.03 146.017 133.632 145.9 134.315 145.9ZM134.315 146.94C133.664 146.94 133.136 147.095 132.731 147.404C132.326 147.703 132.123 148.103 132.123 148.604C132.123 149.105 132.326 149.505 132.731 149.804C133.136 150.103 133.664 150.252 134.315 150.252C134.976 150.252 135.504 150.103 135.899 149.804C136.304 149.505 136.507 149.105 136.507 148.604C136.507 148.103 136.304 147.703 135.899 147.404C135.504 147.095 134.976 146.94 134.315 146.94ZM133.659 142.284H134.987V144.588H133.659V142.284ZM132.235 155.34H141.883V156.428H132.235V155.34ZM132.235 152.268H133.547V155.788H132.235V152.268ZM149.197 143.26H155.853V149.452H149.197V143.26ZM154.557 144.332H150.493V148.38H154.557V144.332ZM158.509 142.268H159.837V150.524H158.509V142.268ZM159.469 145.74H161.965V146.844H159.469V145.74ZM154.653 151.868H155.773V152.252C155.773 152.817 155.634 153.345 155.357 153.836C155.09 154.327 154.711 154.764 154.221 155.148C153.741 155.532 153.186 155.852 152.557 156.108C151.927 156.375 151.255 156.567 150.541 156.684L150.045 155.66C150.663 155.575 151.25 155.425 151.805 155.212C152.359 154.999 152.85 154.743 153.277 154.444C153.703 154.135 154.039 153.793 154.285 153.42C154.53 153.047 154.653 152.657 154.653 152.252V151.868ZM154.893 151.868H156.029V152.252C156.029 152.657 156.151 153.041 156.397 153.404C156.653 153.767 156.994 154.103 157.421 154.412C157.847 154.721 158.333 154.988 158.877 155.212C159.431 155.425 160.018 155.58 160.637 155.676L160.141 156.7C159.426 156.572 158.754 156.375 158.125 156.108C157.495 155.852 156.935 155.532 156.445 155.148C155.965 154.753 155.586 154.311 155.309 153.82C155.031 153.329 154.893 152.807 154.893 152.252V151.868ZM150.605 151.372H160.077V152.444H150.605V151.372ZM168.883 150.252H170.195V152.524H168.883V150.252ZM163.011 149.42H176.083V150.492H163.011V149.42ZM168.883 142.188H170.195V144.204H168.883V142.188ZM168.819 144.332H169.987V144.556C169.987 145.143 169.832 145.671 169.523 146.14C169.224 146.599 168.803 146.999 168.259 147.34C167.726 147.671 167.107 147.937 166.403 148.14C165.699 148.343 164.952 148.487 164.163 148.572L163.763 147.564C164.467 147.511 165.123 147.399 165.731 147.228C166.35 147.057 166.888 146.844 167.347 146.588C167.806 146.332 168.163 146.033 168.419 145.692C168.686 145.34 168.819 144.961 168.819 144.556V144.332ZM169.107 144.332H170.259V144.556C170.259 144.961 170.387 145.34 170.643 145.692C170.91 146.033 171.272 146.332 171.731 146.588C172.2 146.844 172.739 147.057 173.347 147.228C173.955 147.399 174.611 147.511 175.315 147.564L174.931 148.572C174.131 148.487 173.379 148.343 172.675 148.14C171.982 147.937 171.363 147.671 170.819 147.34C170.286 146.999 169.864 146.599 169.555 146.14C169.256 145.671 169.107 145.143 169.107 144.556V144.332ZM164.355 143.628H174.755V144.684H164.355V143.628ZM164.611 152.06H174.483V156.556H164.611V152.06ZM173.187 153.132H165.907V155.468H173.187V153.132ZM181.589 149.612H194.709V150.7H181.589V149.612ZM187.589 150.3H188.933V153.628H187.589V150.3ZM183.269 155.324H193.253V156.428H183.269V155.324ZM183.269 152.204H184.597V155.628H183.269V152.204ZM188.133 142.636C189.157 142.636 190.047 142.753 190.805 142.988C191.562 143.223 192.149 143.559 192.565 143.996C192.991 144.423 193.205 144.94 193.205 145.548C193.205 146.135 192.991 146.647 192.565 147.084C192.149 147.521 191.562 147.857 190.805 148.092C190.047 148.327 189.157 148.444 188.133 148.444C187.119 148.444 186.229 148.327 185.461 148.092C184.703 147.857 184.111 147.521 183.685 147.084C183.269 146.647 183.061 146.135 183.061 145.548C183.061 144.94 183.269 144.423 183.685 143.996C184.111 143.559 184.703 143.223 185.461 142.988C186.229 142.753 187.119 142.636 188.133 142.636ZM188.133 143.708C187.407 143.708 186.767 143.783 186.213 143.932C185.658 144.081 185.226 144.295 184.917 144.572C184.618 144.839 184.469 145.164 184.469 145.548C184.469 145.921 184.618 146.247 184.917 146.524C185.226 146.791 185.658 146.999 186.213 147.148C186.767 147.287 187.407 147.356 188.133 147.356C188.879 147.356 189.525 147.287 190.069 147.148C190.613 146.999 191.034 146.791 191.333 146.524C191.642 146.247 191.797 145.921 191.797 145.548C191.797 145.164 191.642 144.839 191.333 144.572C191.034 144.295 190.613 144.081 190.069 143.932C189.525 143.783 188.879 143.708 188.133 143.708ZM196.011 149.404H209.099V150.476H196.011V149.404ZM201.899 147.084H203.195V149.852H201.899V147.084ZM197.659 146.668H207.563V147.74H197.659V146.668ZM197.659 142.94H207.467V143.996H198.971V147.308H197.659V142.94ZM202.539 151.516C204.086 151.516 205.296 151.745 206.171 152.204C207.046 152.652 207.483 153.292 207.483 154.124C207.483 154.956 207.046 155.596 206.171 156.044C205.296 156.503 204.086 156.732 202.539 156.732C200.992 156.732 199.776 156.503 198.891 156.044C198.016 155.596 197.579 154.956 197.579 154.124C197.579 153.292 198.016 152.652 198.891 152.204C199.776 151.745 200.992 151.516 202.539 151.516ZM202.523 152.556C201.776 152.556 201.131 152.62 200.587 152.748C200.054 152.865 199.643 153.041 199.355 153.276C199.067 153.5 198.923 153.783 198.923 154.124C198.923 154.455 199.067 154.737 199.355 154.972C199.643 155.207 200.054 155.383 200.587 155.5C201.131 155.628 201.776 155.692 202.523 155.692C203.291 155.692 203.942 155.628 204.475 155.5C205.019 155.383 205.435 155.207 205.723 154.972C206.011 154.737 206.155 154.455 206.155 154.124C206.155 153.783 206.011 153.5 205.723 153.276C205.435 153.041 205.019 152.865 204.475 152.748C203.942 152.62 203.291 152.556 202.523 152.556ZM224.397 142.268H225.725V156.732H224.397V142.268ZM225.373 148.14H228.029V149.244H225.373V148.14ZM220.701 143.82H221.997C221.997 145.196 221.773 146.513 221.325 147.772C220.877 149.02 220.173 150.177 219.213 151.244C218.253 152.3 216.989 153.217 215.421 153.996L214.685 152.972C216.029 152.3 217.143 151.516 218.029 150.62C218.925 149.713 219.591 148.711 220.029 147.612C220.477 146.503 220.701 145.308 220.701 144.028V143.82ZM215.357 143.82H221.373V144.924H215.357V143.82ZM239.523 142.268H240.851V156.764H239.523V142.268ZM233.219 143.388C233.934 143.388 234.563 143.596 235.107 144.012C235.662 144.417 236.094 144.999 236.403 145.756C236.723 146.513 236.883 147.404 236.883 148.428C236.883 149.452 236.723 150.343 236.403 151.1C236.094 151.857 235.662 152.444 235.107 152.86C234.563 153.276 233.934 153.484 233.219 153.484C232.504 153.484 231.87 153.276 231.315 152.86C230.76 152.444 230.323 151.857 230.003 151.1C229.694 150.343 229.539 149.452 229.539 148.428C229.539 147.404 229.694 146.513 230.003 145.756C230.323 144.999 230.76 144.417 231.315 144.012C231.87 143.596 232.504 143.388 233.219 143.388ZM233.219 144.572C232.739 144.572 232.318 144.732 231.955 145.052C231.603 145.361 231.326 145.809 231.123 146.396C230.92 146.972 230.819 147.649 230.819 148.428C230.819 149.207 230.92 149.889 231.123 150.476C231.326 151.052 231.603 151.5 231.955 151.82C232.318 152.14 232.739 152.3 233.219 152.3C233.688 152.3 234.099 152.14 234.451 151.82C234.814 151.5 235.096 151.052 235.299 150.476C235.502 149.889 235.603 149.207 235.603 148.428C235.603 147.649 235.502 146.972 235.299 146.396C235.096 145.809 234.814 145.361 234.451 145.052C234.099 144.732 233.688 144.572 233.219 144.572ZM245.081 149.212H255.017V150.3H245.081V149.212ZM243.417 153.676H256.537V154.78H243.417V153.676ZM245.081 143.612H254.873V144.7H246.393V149.692H245.081V143.612Z" fill="#8B7E74"/>
</svg>
