<svg width="310" height="132" viewBox="0 0 310 132" fill="none" xmlns="http://www.w3.org/2000/svg">
<path d="M115 40C115 17.9086 132.909 0 155 0C177.091 0 195 17.9086 195 40C195 62.0914 177.091 80 155 80C132.909 80 115 62.0914 115 40Z" fill="#FF5038"/>
<path d="M138.334 35.8334C138.334 33.9787 138.897 32.1677 139.948 30.6395C140.998 29.1113 142.488 27.9378 144.22 27.274C145.952 26.6103 147.844 26.4874 149.647 26.9218C151.45 27.3561 153.079 28.3272 154.319 29.7067C154.406 29.8 154.512 29.8745 154.629 29.9254C154.746 29.9762 154.873 30.0025 155.001 30.0025C155.128 30.0025 155.255 29.9762 155.372 29.9254C155.489 29.8745 155.595 29.8 155.682 29.7067C156.918 28.3182 158.547 27.339 160.353 26.8994C162.159 26.4598 164.056 26.5806 165.792 27.2458C167.528 27.9111 169.02 29.0891 170.069 30.6232C171.119 32.1573 171.676 33.9746 171.667 35.8334C171.667 39.65 169.167 42.5 166.667 45L157.514 53.855C157.203 54.2117 156.821 54.4982 156.391 54.6955C155.961 54.8928 155.494 54.9964 155.021 54.9994C154.548 55.0024 154.08 54.9048 153.648 54.7129C153.216 54.5211 152.829 54.2394 152.514 53.8867L143.334 45C140.834 42.5 138.334 39.6667 138.334 35.8334Z" stroke="white" stroke-width="3.33333" stroke-linecap="round" stroke-linejoin="round"/>
<path d="M87.4868 126V102H92.6168C92.8268 102 93.0368 102.09 93.1868 102.27L99.6668 109.8L106.147 102.27C106.297 102.09 106.507 102 106.747 102H111.847V126H106.147V111L103.447 114.18L101.257 116.7C100.417 117.66 98.9168 117.66 98.0768 116.7L93.1868 111V126H87.4868ZM127.99 102C134.62 102 139.99 107.37 139.99 114C139.99 120.63 134.62 126 127.99 126C121.36 126 115.99 120.63 115.99 114C115.99 107.37 121.36 102 127.99 102ZM127.99 120.27C131.44 120.27 134.26 117.48 134.26 114C134.26 110.55 131.44 107.73 127.99 107.73C124.51 107.73 121.72 110.55 121.72 114C121.72 117.48 124.51 120.27 127.99 120.27ZM144.147 126V102H149.277C149.487 102 149.697 102.09 149.847 102.27L156.327 109.8L162.807 102.27C162.957 102.09 163.167 102 163.407 102H168.507V126H162.807V111L160.107 114.18L157.917 116.7C157.077 117.66 155.577 117.66 154.737 116.7L149.847 111V126H144.147ZM173.4 126V102H185.58C186.75 102 187.68 102.93 187.68 104.1V107.7H179.1V111.15H187.68V116.85H179.1V126H173.4ZM192.575 126V102H196.205C197.345 102 198.305 102.93 198.305 104.1V126H192.575ZM210.005 126V107.7H202.445V102H221.165C222.335 102 223.265 102.96 223.265 104.1V107.7H215.705V126H210.005Z" fill="#FF5038"/>
</svg>
