<svg width="76" height="15" viewBox="0 0 76 15" fill="none" xmlns="http://www.w3.org/2000/svg">
<path d="M0.000390679 14.4V2.41995e-05H3.07839C3.20439 2.41995e-05 3.33039 0.0540235 3.42039 0.162024L7.30839 4.68002L11.1964 0.162024C11.2864 0.0540235 11.4124 2.41995e-05 11.5564 2.41995e-05H14.6164V14.4H11.1964V5.40002L9.57639 7.30802L8.26239 8.82002C7.75839 9.39602 6.85839 9.39602 6.35439 8.82002L3.42039 5.40002V14.4H0.000390679ZM23.1754 2.41995e-05C27.1534 2.41995e-05 30.3754 3.22202 30.3754 7.20002C30.3754 11.178 27.1534 14.4 23.1754 14.4C19.1974 14.4 15.9754 11.178 15.9754 7.20002C15.9754 3.22202 19.1974 2.41995e-05 23.1754 2.41995e-05ZM23.1754 10.962C25.2454 10.962 26.9374 9.28802 26.9374 7.20002C26.9374 5.13002 25.2454 3.43802 23.1754 3.43802C21.0874 3.43802 19.4134 5.13002 19.4134 7.20002C19.4134 9.28802 21.0874 10.962 23.1754 10.962ZM31.743 14.4V2.41995e-05H34.821C34.947 2.41995e-05 35.073 0.0540235 35.163 0.162024L39.051 4.68002L42.939 0.162024C43.029 0.0540235 43.155 2.41995e-05 43.299 2.41995e-05H46.359V14.4H42.939V5.40002L41.319 7.30802L40.005 8.82002C39.501 9.39602 38.601 9.39602 38.097 8.82002L35.163 5.40002V14.4H31.743ZM48.168 14.4V2.41995e-05H55.476C56.178 2.41995e-05 56.736 0.558023 56.736 1.26002V3.42002H51.588V5.49002H56.736V8.91002H51.588V14.4H48.168ZM58.5461 14.4V2.41995e-05H60.7241C61.4081 2.41995e-05 61.9841 0.558023 61.9841 1.26002V14.4H58.5461ZM67.8774 14.4V3.42002H63.3414V2.41995e-05H74.5734C75.2754 2.41995e-05 75.8334 0.576024 75.8334 1.26002V3.42002H71.2974V14.4H67.8774Z" fill="#4B4B4B"/>
</svg>
