<svg width="32" height="32" viewBox="0 0 32 32" fill="none" xmlns="http://www.w3.org/2000/svg">
<path d="M28.3997 20.4C28.6981 20.6973 28.9348 21.0505 29.0963 21.4395C29.2578 21.8285 29.3409 22.2455 29.3409 22.6666C29.3409 23.0878 29.2578 23.5048 29.0963 23.8938C28.9348 24.2828 28.6981 24.636 28.3997 24.9333L24.9331 28.4C24.6358 28.6983 24.2825 28.935 23.8936 29.0965C23.5046 29.258 23.0876 29.3412 22.6664 29.3412C22.2452 29.3412 21.8282 29.258 21.4393 29.0965C21.0503 28.935 20.697 28.6983 20.3997 28.4L3.59974 11.6C3.00048 10.9978 2.66406 10.1828 2.66406 9.33331C2.66406 8.48378 3.00048 7.66881 3.59974 7.06665L7.0664 3.59998C7.66857 3.00072 8.48353 2.66431 9.33307 2.66431C10.1826 2.66431 10.9976 3.00072 11.5997 3.59998L28.3997 20.4Z" stroke="#FF5038" stroke-width="2.66667" stroke-linecap="round" stroke-linejoin="round"/>
<path d="M19.334 16.6667L22.0007 14" stroke="#FF5038" stroke-width="2.66667" stroke-linecap="round" stroke-linejoin="round"/>
<path d="M15.334 12.6667L18.0007 10" stroke="#FF5038" stroke-width="2.66667" stroke-linecap="round" stroke-linejoin="round"/>
<path d="M11.334 8.66667L14.0007 6" stroke="#FF5038" stroke-width="2.66667" stroke-linecap="round" stroke-linejoin="round"/>
<path d="M23.334 20.6667L26.0007 18" stroke="#FF5038" stroke-width="2.66667" stroke-linecap="round" stroke-linejoin="round"/>
</svg>
