<svg width="32" height="32" viewBox="0 0 32 32" fill="none" xmlns="http://www.w3.org/2000/svg">
<path d="M16 0C12.8355 0 9.74207 0.938384 7.11088 2.69649C4.4797 4.45459 2.42894 6.95345 1.21793 9.87706C0.00693258 12.8007 -0.309921 16.0177 0.307443 19.1214C0.924806 22.2251 2.44866 25.0761 4.6863 27.3137C6.92394 29.5513 9.77486 31.0752 12.8786 31.6926C15.9823 32.3099 19.1993 31.9931 22.1229 30.7821C25.0466 29.5711 27.5454 27.5203 29.3035 24.8891C31.0616 22.2579 32 19.1645 32 16C31.9953 11.758 30.3081 7.69105 27.3085 4.69149C24.309 1.69193 20.242 0.00470552 16 0ZM16 28.4444C13.5387 28.4444 11.1327 27.7146 9.08624 26.3472C7.03976 24.9798 5.44473 23.0362 4.50284 20.7623C3.56095 18.4884 3.31451 15.9862 3.79468 13.5722C4.27485 11.1582 5.46007 8.94083 7.20045 7.20045C8.94084 5.46006 11.1582 4.27484 13.5722 3.79467C15.9862 3.3145 18.4884 3.56094 20.7623 4.50283C23.0362 5.44472 24.9798 7.03976 26.3472 9.08624C27.7146 11.1327 28.4444 13.5387 28.4444 16C28.4409 19.2994 27.1287 22.4626 24.7957 24.7956C22.4626 27.1287 19.2994 28.4409 16 28.4444ZM14.2222 16.5926V8.88889C14.2222 8.41739 14.4095 7.96521 14.7429 7.63181C15.0763 7.29841 15.5285 7.11111 16 7.11111C16.4715 7.11111 16.9237 7.29841 17.2571 7.63181C17.5905 7.96521 17.7778 8.41739 17.7778 8.88889V16.5926C17.7778 17.0641 17.5905 17.5163 17.2571 17.8497C16.9237 18.1831 16.4715 18.3704 16 18.3704C15.5285 18.3704 15.0763 18.1831 14.7429 17.8497C14.4095 17.5163 14.2222 17.0641 14.2222 16.5926ZM18.3704 22.5185C18.3704 22.9873 18.2314 23.4456 17.9709 23.8354C17.7104 24.2252 17.3402 24.529 16.9071 24.7085C16.474 24.8879 15.9974 24.9348 15.5376 24.8433C15.0778 24.7519 14.6554 24.5261 14.3239 24.1946C13.9924 23.8631 13.7666 23.4408 13.6752 22.9809C13.5837 22.5211 13.6307 22.0445 13.8101 21.6114C13.9895 21.1783 14.2933 20.8081 14.6831 20.5476C15.0729 20.2872 15.5312 20.1481 16 20.1481C16.6287 20.1481 17.2316 20.3979 17.6761 20.8424C18.1206 21.2869 18.3704 21.8899 18.3704 22.5185Z" fill="#FF5038"/>
</svg>
