<svg width="32" height="32" viewBox="0 0 32 32" fill="none" xmlns="http://www.w3.org/2000/svg">
<path d="M23.4619 17.0238C23.9621 17.524 24.6405 17.8051 25.3479 17.8051C26.0552 17.8051 26.7337 17.524 27.2339 17.0238C27.734 16.5236 28.0151 15.8452 28.0151 15.1378C28.0151 14.4305 27.734 13.752 27.2339 13.2518L24.8765 10.8958C25.3767 11.3959 26.0551 11.6767 26.7623 11.6766C27.1125 11.6765 27.4593 11.6075 27.7828 11.4734C28.1063 11.3393 28.4003 11.1429 28.6479 10.8952C28.8954 10.6475 29.0918 10.3535 29.2258 10.0299C29.3597 9.70636 29.4286 9.35957 29.4286 9.00937C29.4285 8.65917 29.3595 8.31241 29.2254 7.9889C29.0913 7.66538 28.8949 7.37143 28.6472 7.12385L24.8765 3.35318C24.3765 2.85298 23.6983 2.5719 22.991 2.57178C22.2837 2.57165 21.6054 2.85249 21.1052 3.35251C20.605 3.85253 20.3239 4.53078 20.3238 5.23804C20.3237 5.9453 20.6045 6.62365 21.1045 7.12385L18.7485 4.76651C18.5008 4.51884 18.2068 4.32237 17.8832 4.18833C17.5596 4.0543 17.2128 3.98531 16.8625 3.98531C16.5123 3.98531 16.1654 4.0543 15.8418 4.18833C15.5182 4.32237 15.2242 4.51884 14.9765 4.76651C14.7288 5.01419 14.5324 5.30822 14.3983 5.63182C14.2643 5.95542 14.1953 6.30225 14.1953 6.65251C14.1953 7.00278 14.2643 7.34961 14.3983 7.67321C14.5324 7.99681 14.7288 8.29084 14.9765 8.53851L23.4619 17.0238Z" stroke="#FF5038" stroke-width="2.67" stroke-linecap="round" stroke-linejoin="round"/>
<path d="M3.33398 28.6665L5.20065 26.7998" stroke="#FF5038" stroke-width="2.67" stroke-linecap="round" stroke-linejoin="round"/>
<path d="M26.8008 5.20016L28.6674 3.3335" stroke="#FF5038" stroke-width="2.67" stroke-linecap="round" stroke-linejoin="round"/>
<path d="M7.12433 28.6467C7.62436 29.1469 8.3026 29.428 9.00986 29.4281C9.36006 29.4282 9.70685 29.3592 10.0304 29.2253C10.354 29.0913 10.648 28.8949 10.8957 28.6474C11.1433 28.3998 11.3398 28.1058 11.4739 27.7823C11.608 27.4588 11.677 27.112 11.6771 26.7618C11.6771 26.4116 11.6082 26.0649 11.4743 25.7413C11.3403 25.4177 11.1439 25.1237 10.8963 24.876L13.2523 27.2334C13.7525 27.7336 14.4309 28.0146 15.1383 28.0146C15.8457 28.0146 16.5241 27.7336 17.0243 27.2334C17.5245 26.7332 17.8055 26.0548 17.8055 25.3474C17.8055 24.64 17.5245 23.9616 17.0243 23.4614L8.539 14.976C8.29133 14.7284 7.9973 14.5319 7.6737 14.3979C7.3501 14.2638 7.00326 14.1948 6.653 14.1948C6.30274 14.1948 5.95591 14.2638 5.6323 14.3979C5.3087 14.5319 5.01467 14.7284 4.767 14.976C4.51933 15.2237 4.32286 15.5177 4.18882 15.8413C4.05478 16.1649 3.98579 16.5118 3.98579 16.862C3.98579 17.2123 4.05478 17.5591 4.18882 17.8827C4.32286 18.2063 4.51933 18.5004 4.767 18.748L7.12433 21.104C6.62414 20.604 5.94579 20.3232 5.23853 20.3233C4.53127 20.3234 3.85302 20.6045 3.353 21.1047C2.85298 21.6049 2.57214 22.2832 2.57227 22.9905C2.57239 23.6978 2.85347 24.376 3.35367 24.876L7.12433 28.6467Z" stroke="#FF5038" stroke-width="2.67" stroke-linecap="round" stroke-linejoin="round"/>
<path d="M12.8008 19.1998L19.2008 12.7998" stroke="#FF5038" stroke-width="2.67" stroke-linecap="round" stroke-linejoin="round"/>
</svg>
