<svg width="32" height="32" viewBox="0 0 32 32" fill="none" xmlns="http://www.w3.org/2000/svg">
<path d="M21.3327 28V25.3333C21.3327 23.9188 20.7708 22.5623 19.7706 21.5621C18.7704 20.5619 17.4138 20 15.9993 20H7.99935C6.58486 20 5.22831 20.5619 4.22811 21.5621C3.22792 22.5623 2.66602 23.9188 2.66602 25.3333V28" stroke="#FF5038" stroke-width="2.66667" stroke-linecap="round" stroke-linejoin="round"/>
<path d="M11.9993 14.6667C14.9449 14.6667 17.3327 12.2789 17.3327 9.33333C17.3327 6.38781 14.9449 4 11.9993 4C9.05383 4 6.66602 6.38781 6.66602 9.33333C6.66602 12.2789 9.05383 14.6667 11.9993 14.6667Z" stroke="#FF5038" stroke-width="2.66667" stroke-linecap="round" stroke-linejoin="round"/>
<path d="M29.334 28V25.3333C29.3331 24.1516 28.9398 23.0037 28.2158 22.0698C27.4918 21.1358 26.4782 20.4688 25.334 20.1733" stroke="#FF5038" stroke-width="2.66667" stroke-linecap="round" stroke-linejoin="round"/>
<path d="M21.334 4.17334C22.4812 4.46707 23.498 5.13427 24.2242 6.06975C24.9503 7.00523 25.3444 8.15578 25.3444 9.34001C25.3444 10.5242 24.9503 11.6748 24.2242 12.6103C23.498 13.5457 22.4812 14.2129 21.334 14.5067" stroke="#FF5038" stroke-width="2.66667" stroke-linecap="round" stroke-linejoin="round"/>
</svg>
